<?xml version='1.0' encoding='utf-8'?>
<svg xmlns:xlink="http://www.w3.org/1999/xlink" xmlns="http://www.w3.org/2000/svg" version="1.1" id="Layer_1" x="0px" y="0px" viewBox="0 0 500 500" style="enable-background:new 0 0 500 500;"> <style type="text/css"> .st0{fill:#16A1EF;} .st1{fill:#1A7C7B;} .st2{clip-path:url(#SVGID_2_);} .st3{fill:#006D67;} .st4{fill:#1E4C4C;} .st5{fill:#F8FBF7;} .st6{fill-rule:evenodd;clip-rule:evenodd;fill:#2E5959;} .st7{fill-rule:evenodd;clip-rule:evenodd;fill:#258382;} .st8{fill-rule:evenodd;clip-rule:evenodd;fill:#F8FBF7;} .st9{fill-rule:evenodd;clip-rule:evenodd;fill:#559879;} .st10{fill-rule:evenodd;clip-rule:evenodd;fill:#FCC020;} .st11{fill-rule:evenodd;clip-rule:evenodd;fill:#9EC10D;} .st12{fill-rule:evenodd;clip-rule:evenodd;fill:#C4C10D;} .st13{fill:#F86B40;} .st14{fill-rule:evenodd;clip-rule:evenodd;fill:#4E8B0D;} .st15{opacity:0.5;fill-rule:evenodd;clip-rule:evenodd;fill:#1A7C7B;} </style> <rect class="st0" width="500" height="500"/> <g> <polygon class="st1" points="284.5,370 363.9,192.8 443.7,370 "/> <g> <defs> <polygon id="SVGID_1_" points="284.5,370 363.9,192.8 443.7,370 "/> </defs> <clipPath id="SVGID_2_"> <use xlink:href="#SVGID_1_" style="overflow:visible;"/> </clipPath> <g class="st2"> <circle class="st3" cx="355.1" cy="267.7" r="25.9"/> <ellipse transform="matrix(0.9293 -0.3694 0.3694 0.9293 -76.2835 140.0268)" class="st3" cx="327.5" cy="269.2" rx="16.7" ry="16.7"/> <circle class="st3" cx="380.2" cy="275.8" r="8.6"/> <path class="st3" d="M411.9,258.2c0-3.8-3.1-6.9-6.9-6.9c-3.8,0-6.9,3.1-6.9,6.9c0,3.8,3.1,6.9,6.9,6.9 C408.8,265.1,411.9,262,411.9,258.2z"/> <path class="st3" d="M413.8,262.7c0-1.1-0.9-2-2-2c-1.1,0-2,0.9-2,2c0,1.1,0.9,2,2,2C412.9,264.7,413.8,263.8,413.8,262.7z"/> </g> </g> <polygon class="st4" points="131.5,370 243.7,150.3 359.2,370 "/> <g> <path class="st5" d="M396,242.9c0-15.1-12.3-27.4-27.4-27.4c-15.1,0-27.4,12.3-27.4,27.4c0,15.1,12.3,27.4,27.4,27.4 C383.7,270.3,396,258.1,396,242.9z"/> <circle class="st5" cx="339.4" cy="244.5" r="17.7"/> <path class="st5" d="M404.2,251.5c0-5-4.1-9.1-9.1-9.1c-5,0-9.1,4.1-9.1,9.1c0,5,4.1,9.1,9.1,9.1 C400.1,260.6,404.2,256.5,404.2,251.5z"/> <path class="st5" d="M428.6,232.9c0-4-3.3-7.3-7.3-7.3c-4,0-7.3,3.3-7.3,7.3c0,4,3.3,7.3,7.3,7.3 C425.3,240.2,428.6,236.9,428.6,232.9z"/> <path class="st5" d="M430.6,237.6c0-1.2-1-2.1-2.1-2.1s-2.1,1-2.1,2.1c0,1.2,1,2.1,2.1,2.1S430.6,238.8,430.6,237.6z"/> </g> <g> <path class="st5" d="M107.5,206.6c0,18.7,15.2,33.9,33.9,33.9c18.7,0,33.9-15.2,33.9-33.9c0-18.7-14-29.2-32.7-29.2 C123.9,177.4,107.5,187.9,107.5,206.6z"/> <path class="st5" d="M159.2,220.1c0,8.2,6.7,14.9,14.9,14.9c8.2,0,14.9-6.7,14.9-14.9c0-8.2-6.7-14.9-14.9-14.9 C165.9,205.2,159.2,211.9,159.2,220.1z"/> <path class="st5" d="M77.1,214.2c0,12.7,10.3,23,23,23s23-10.3,23-23s-10.3-23-23-23S77.1,201.6,77.1,214.2z"/> </g> <polygon class="st1" points="63.9,370 143.2,192.8 223.1,370 "/> <polygon class="st6" points="243.7,150.3 244.6,370 359.2,370 "/> <polygon class="st7" points="144.2,193.2 150.7,369.8 223.1,370 "/> <polygon class="st8" points="243.7,150.3 224.4,188.2 245.6,198.3 264.4,188.2 "/> <polygon class="st9" points="83.2,353.5 65.7,344.6 83.6,292.8 101.1,346.4 "/> <polygon class="st10" points="94,350.2 81.8,344 94.2,308 106.5,345.2 "/> <polygon class="st11" points="65.9,371.5 48.4,362.6 66.3,310.8 83.9,364.4 "/> <polygon class="st11" points="104.3,368.8 90.1,361.7 104.6,319.9 118.7,363.1 "/> <polygon class="st9" points="427.2,353.5 444.8,344.6 426.9,292.8 409.3,346.4 "/> <polygon class="st12" points="388.8,370 401,363.9 388.6,327.8 376.4,365.1 "/> <polygon class="st11" points="444.5,371.5 462,362.6 444.1,310.8 426.6,364.4 "/> <polygon class="st13" points="244.1,116.1 286.9,99.3 244.1,84 "/> <polygon class="st13" points="242,153.7 243.8,150.3 245.3,153.7 245.3,83 242,83 "/> <polygon class="st11" points="406.1,371.5 420.3,364.4 405.9,322.6 391.7,365.8 "/> <polygon class="st14" points="424.9,371.5 439.1,364.4 424.6,322.6 410.5,365.8 "/> <path class="st15" d="M157.5,369.1l-74.8,0.4c0,0-7,1.3-9.6,4c-4.5,4.6-5.8,14.4,1.5,18.5c11.7,6.5,19.2,5.7,45.2,5.7 s42.9,7.8,32.5,13c-10.4,5.2-13.6,16.9-2.6,16.9c5.2,0,89.7,1.3,106.6,0c16.9-1.3,38.8-13.4,16.5-21.6c-9.8-3.6-19.1-1.8-19.1-1.8 s-1.9-7.8,13-7.8c3.9,0,133.9,2.6,139.1-6.5c5.2-9.1-8.2-19.5-8.2-19.5L157.5,369.1z"/> </g> </svg>