<?xml version='1.0' encoding='utf-8'?>
<svg xmlns="http://www.w3.org/2000/svg" width="1322.9166mm" height="926.04169mm" viewBox="0 0 1322.9166 926.04169" version="1.1" id="svg8"> <defs id="defs2"/> <metadata id="metadata5"> </metadata> <g id="layer1" transform="translate(1094.8121,794.64703)"> <rect style="opacity:1;fill:#f5f4f1;fill-opacity:1;stroke:none;stroke-width:6.10366058;stroke-linecap:round;stroke-linejoin:round;stroke-miterlimit:4;stroke-dasharray:none;stroke-dashoffset:0;stroke-opacity:1;paint-order:stroke fill markers" id="rect1202" width="1322.9166" height="926.04169" x="-1094.8121" y="-794.64703"/> <rect ry="9.0093021" rx="9.0093021" y="-656.41327" x="-966.78809" height="688.36523" width="1030.8523" id="rect1212" style="opacity:1;fill:#e4e3e0;fill-opacity:1;stroke:none;stroke-width:15.85927963;stroke-linecap:round;stroke-linejoin:round;stroke-miterlimit:4;stroke-dasharray:none;stroke-dashoffset:0;stroke-opacity:1;paint-order:stroke fill markers"/> <rect style="opacity:1;fill:#fefefd;fill-opacity:1;stroke:#450064;stroke-width:15.44128513;stroke-linecap:round;stroke-linejoin:round;stroke-miterlimit:4;stroke-dasharray:none;stroke-dashoffset:0;stroke-opacity:1;paint-order:stroke fill markers" id="rect1192" width="1003.6827" height="670.22235" x="-933.54407" y="-678.71405" rx="8.7718487" ry="8.7718487"/> <path id="rect1245" style="opacity:1;fill:#e0f3fd;fill-opacity:1;stroke:none;stroke-width:15.44128513;stroke-linecap:round;stroke-linejoin:round;stroke-miterlimit:4;stroke-dasharray:none;stroke-dashoffset:0;stroke-opacity:1;paint-order:stroke fill markers" d="M -887.98467,-93.470096 H 37.640234 c 4.85959,0 8.77183,3.91224 8.77183,8.77183 v 26.81327 c 0,4.85959 -3.91224,8.77183 -8.77183,8.77183 H -887.98467 c -4.8594,0 -8.7716,-3.91224 -8.7716,-8.77183 v -26.81327 c 0,-4.85959 3.9122,-8.77183 8.7716,-8.77183 z M -316.0137,-331.59676 H 25.967184 c 4.85959,0 8.77182,3.91223 8.77182,8.77182 v 150.54576 c 0,4.8596 -3.91223,8.77183 -8.77182,8.77183 H -316.0137 c -4.85959,0 -8.77183,-3.91223 -8.77183,-8.77183 v -150.54576 c 0,-4.85959 3.91224,-8.77182 8.77183,-8.77182 z m -522.94487,-170.42399 h 297.62391 c 4.85959,0 8.77183,3.91224 8.77183,8.77183 v 183.22983 c 0,4.85959 -3.91224,8.77183 -8.77183,8.77183 h -297.62391 c -4.8597,0 -8.7719,-3.91224 -8.7719,-8.77183 v -183.22983 c 0,-4.85959 3.9122,-8.77183 8.7719,-8.77183 z m -53.6952,-130.73623 H 39.974614 c 4.85959,0 8.77183,3.91224 8.77183,8.77183 v 29.14786 c 0,4.85959 -3.91224,8.77182 -8.77183,8.77182 H -892.65377 c -4.8597,0 -8.7719,-3.91223 -8.7719,-8.77182 v -29.14786 c 0,-4.85959 3.9122,-8.77183 8.7719,-8.77183 z"/> <path id="path1228" style="opacity:0.12900002;fill:#450064;fill-opacity:1;stroke:none;stroke-width:9.26477051;stroke-linecap:round;stroke-linejoin:round;stroke-miterlimit:4;stroke-dasharray:none;stroke-dashoffset:0;stroke-opacity:1;paint-order:stroke fill markers" d="m -731.95467,-455.40912 -37.8668,32.13017 -8.892,-48.85863 z m 633.714814,89.69929 18.69226,32.18858 -32.188594,18.69227 -18.69226,-32.18856 z m -52.478974,256.00525 a 24.247105,24.247105 0 0 1 -24.24711,24.247094 24.247105,24.247105 0 0 1 -24.24708,-24.247104 24.247105,24.247105 0 0 1 24.24708,-24.2471 24.247105,24.247105 0 0 1 24.24711,24.24711 z m -190.62006,-446.92319 -35.88054,-21.35619 36.43522,-20.39537 z m 236.14427,114.24622 a 16.076091,16.076091 0 0 1 -16.07607,16.07609 16.076091,16.076091 0 0 1 -16.07611,-16.07608 16.076091,16.076091 0 0 1 16.07611,-16.0761 16.076091,16.076091 0 0 1 16.07607,16.07609 z m 13.375154,212.40442 -42.728694,25.30799 -0.55301,-49.65814 z m -467.795304,-332.92424 -35.954,9.63384 -9.6339,-35.95407 35.9541,-9.63385 z m -197.1601,282.2834 a 24.247105,24.247105 0 0 1 -24.2471,24.2471 24.247105,24.247105 0 0 1 -24.2468,-24.24711 24.247105,24.247105 0 0 1 24.2468,-24.2471 24.247105,24.247105 0 0 1 24.2471,24.24711 z"/> <path style="opacity:0.17300002;fill:#450064;fill-opacity:1;stroke:none;stroke-width:8.44202518;stroke-linecap:butt;stroke-linejoin:round;stroke-miterlimit:4;stroke-dasharray:none;stroke-dashoffset:0;stroke-opacity:1;paint-order:fill markers stroke" d="m -282.4399,-107.87676 v 6.8e-4 h -275.23097 c -3.1604,0 -5.8022,1.37142 -6.6064,3.24825 l -37.2535,17.339034 -5.2381,2.43775 c -0.3263,0.15191 -0.6428,0.3066 -0.9488,0.46403 -2.1421,1.10193 -3.7847,2.33476 -4.9276,3.63644 -0.3268,0.37195 -0.6129,0.74937 -0.8579,1.13123 -0.1226,0.19092 -0.2347,0.38317 -0.3367,0.57603 -0.2041,0.38572 -0.3679,0.77467 -0.4906,1.166 -0.062,0.19567 -0.1118,0.39204 -0.1531,0.58856 -0.082,0.39309 -0.1226,0.7876 -0.1226,1.18202 -2e-4,0.19718 0.012,0.39433 0.031,0.59134 0.041,0.3938 0.1226,0.78765 0.2443,1.17851 0.1226,0.39088 0.286,0.77954 0.4898,1.16462 0.408,0.77078 0.9793,1.52706 1.7142,2.25756 0.1837,0.18258 0.3775,0.36348 0.5816,0.54264 0.4083,0.35835 0.8569,0.70934 1.3469,1.05191 0.2453,0.1714 0.5004,0.34025 0.7661,0.50718 0.5308,0.33362 1.1022,0.65831 1.7148,0.97188 0.3064,0.15689 0.6227,0.31062 0.9495,0.46196 l 5.4593,2.52958 13.9913,6.48326 22.9993,10.65749 c 0.7483,1.93106 3.4285,3.35469 6.6482,3.35469 h 304.87552 c 3.79593,0 6.85204,-1.97587 6.86245,-4.43302 0,-0.004 0.001,-0.01 0.001,-0.0136 v -54.630024 c 0,-0.004 -0.001,-0.01 -0.001,-0.0136 -0.009,-2.45684 -3.06686,-4.43234 -6.86245,-4.43234 h -8.60237 c -0.0154,-1e-5 -0.0318,-6.9e-4 -0.0482,-6.9e-4 z" id="path1122"/> <g id="g1048" transform="matrix(1.3462694,0,0,1.3462694,754.33171,-259.50292)" style="opacity:0.10100002;fill:#450064;fill-opacity:1"> <path id="rect947" d="m -717.3451,-44.838192 h 8.98626 c 2.53638,0 4.5783,2.440917 4.5783,5.472907 v 67.673227 c 0,3.031991 -2.04192,5.472907 -4.5783,5.472907 h -8.98626 c -2.53638,0 -4.5783,-2.440916 -4.5783,-5.472907 v -67.673227 c 0,-3.03199 2.04192,-5.472907 4.5783,-5.472907 z" style="opacity:1;fill:#450064;fill-opacity:1;stroke:none;stroke-width:1.68156385;stroke-linecap:butt;stroke-linejoin:round;stroke-miterlimit:4;stroke-dasharray:none;stroke-dashoffset:0;stroke-opacity:1;paint-order:fill markers stroke"/> <path id="rect949" d="m -1073.3986,-44.838192 h 8.9862 c 2.5364,0 4.5783,2.440917 4.5783,5.472907 v 67.673227 c 0,3.031991 -2.0419,5.472907 -4.5783,5.472907 h -8.9862 c -2.5364,0 -4.5783,-2.440916 -4.5783,-5.472907 v -67.673227 c 0,-3.03199 2.0419,-5.472907 4.5783,-5.472907 z" style="opacity:1;fill:#450064;fill-opacity:1;stroke:none;stroke-width:1.68156385;stroke-linecap:butt;stroke-linejoin:round;stroke-miterlimit:4;stroke-dasharray:none;stroke-dashoffset:0;stroke-opacity:1;paint-order:fill markers stroke"/> <path id="rect951" d="m -1053.0304,-171.83817 h 323.5476 c 10.88874,0 19.65477,8.76603 19.65477,19.65477 V 44.36422 c 0,10.888738 -8.76603,19.654762 -19.65477,19.654762 h -323.5476 c -10.8888,0 -19.6548,-8.766024 -19.6548,-19.654762 V -152.1834 c 0,-10.88874 8.766,-19.65477 19.6548,-19.65477 z" style="opacity:1;fill:#450064;fill-opacity:1;stroke:none;stroke-width:3;stroke-linecap:butt;stroke-linejoin:round;stroke-miterlimit:4;stroke-dasharray:none;stroke-dashoffset:0;stroke-opacity:1;paint-order:fill markers stroke"/> <path id="rect953" d="m -1037.7452,-148.21417 h 292.32343 c 2.53637,0 4.57829,2.32956 4.57829,5.22323 V 4.7101622 c 0,2.8936712 -2.04192,5.2232332 -4.57829,5.2232332 h -292.32343 c -2.5364,0 -4.5783,-2.329562 -4.5783,-5.2232332 V -142.99094 c 0,-2.89367 2.0419,-5.22323 4.5783,-5.22323 z" style="opacity:1;fill:#450064;fill-opacity:1;stroke:none;stroke-width:1.50250888;stroke-linecap:butt;stroke-linejoin:round;stroke-miterlimit:4;stroke-dasharray:none;stroke-dashoffset:0;stroke-opacity:1;paint-order:fill markers stroke"/> <path id="rect955" d="m -1037.7452,-153.55957 h 292.32343 c 2.53637,0 4.57829,2.32956 4.57829,5.22323 V -0.63523579 c 0,2.89367119 -2.04192,5.22323319 -4.57829,5.22323319 h -292.32343 c -2.5364,0 -4.5783,-2.329562 -4.5783,-5.22323319 V -148.33634 c 0,-2.89367 2.0419,-5.22323 4.5783,-5.22323 z" style="opacity:1;fill:#450064;fill-opacity:1;stroke:none;stroke-width:1.50250888;stroke-linecap:butt;stroke-linejoin:round;stroke-miterlimit:4;stroke-dasharray:none;stroke-dashoffset:0;stroke-opacity:1;paint-order:fill markers stroke"/> <path id="rect957" d="m -1016.5476,-98.712303 h 250.58175 c 5.51092,0 9.94751,4.43659 9.94751,9.947512 v 50.64188 c 0,5.510921 -4.43659,9.947511 -9.94751,9.947511 h -250.58175 c -5.5109,0 -9.9475,-4.43659 -9.9475,-9.947511 v -50.64188 c 0,-5.510922 4.4366,-9.947512 9.9475,-9.947512 z" style="opacity:0.34500002;fill:#450064;fill-opacity:1;stroke:none;stroke-width:1.41453123;stroke-linecap:butt;stroke-linejoin:round;stroke-miterlimit:4;stroke-dasharray:none;stroke-dashoffset:0;stroke-opacity:1;paint-order:fill markers stroke"/> <path style="opacity:1;fill:#450064;fill-opacity:1;stroke:none;stroke-width:3;stroke-linecap:butt;stroke-linejoin:round;stroke-miterlimit:4;stroke-dasharray:none;stroke-dashoffset:0;stroke-opacity:1;paint-order:fill markers stroke" d="m -1072.6853,36.048815 v 8.315256 c 0,10.888736 8.7659,19.655128 19.6546,19.655128 h 323.54772 c 10.88874,3e-6 19.65513,-8.766392 19.65513,-19.655128 v -8.315256 c 0,10.888739 -8.76639,19.654615 -19.65513,19.654615 h -323.54772 c -10.8887,0 -19.6546,-8.765876 -19.6546,-19.654615 z" id="path959"/> <path style="color:#000000;font-style:normal;font-variant:normal;font-weight:normal;font-stretch:normal;font-size:medium;line-height:normal;font-family:sans-serif;font-variant-ligatures:normal;font-variant-position:normal;font-variant-caps:normal;font-variant-numeric:normal;font-variant-alternates:normal;font-feature-settings:normal;text-indent:0;text-align:start;text-decoration:none;text-decoration-line:none;text-decoration-style:solid;text-decoration-color:#000000;letter-spacing:normal;word-spacing:normal;text-transform:none;writing-mode:lr-tb;direction:ltr;text-orientation:mixed;dominant-baseline:auto;baseline-shift:baseline;text-anchor:start;white-space:normal;shape-padding:0;clip-rule:nonzero;display:inline;overflow:visible;visibility:visible;opacity:1;isolation:auto;mix-blend-mode:normal;color-interpolation:sRGB;color-interpolation-filters:linearRGB;solid-color:#000000;solid-opacity:1;vector-effect:none;fill:#450064;fill-opacity:1;fill-rule:nonzero;stroke:none;stroke-width:4.78599977;stroke-linecap:butt;stroke-linejoin:round;stroke-miterlimit:4;stroke-dasharray:none;stroke-dashoffset:0;stroke-opacity:1;paint-order:fill markers stroke;color-rendering:auto;image-rendering:auto;shape-rendering:auto;text-rendering:auto;enable-background:accumulate" d="m -1004.8464,5.8430031 c -2.0076,0 -3.774,1.10891 -4.8385,2.49959 -1.0645,1.39066 -1.6351,3.0413399 -1.9435,4.7511299 a 2.3932391,2.3932391 0 0 0 -0.01,0.0429 l -8.2212,50.88216 h 4.8472 l 8.0915,-50.07808 c 0.2113,-1.1692 0.6278,-2.15869 1.0336,-2.68872 0.406,-0.53046 0.5931,-0.6227 1.0382,-0.6227 h 18.20298 190.77335 18.20304 c 0.44503,0 0.63212,0.0922 1.0382,0.6227 0.40571,0.53003 0.82222,1.5195 1.03349,2.68872 l 8.09151,50.07808 h 4.84725 l -8.21819,-50.88216 a 2.3932391,2.3932391 0 0 0 -0.007,-0.0429 c -0.30845,-1.70978 -0.87905,-3.3604699 -1.94355,-4.7511299 -1.06447,-1.39066 -2.8309,-2.49959 -4.83846,-2.49959 h -18.20354 -190.77335 z" id="path961"/> <path id="rect963" d="m -1016.5476,-103.626 h 250.58175 c 5.51092,0 9.94751,4.436591 9.94751,9.947512 v 50.64188 c 0,5.510922 -4.43659,9.947512 -9.94751,9.947512 h -250.58175 c -5.5109,0 -9.9475,-4.43659 -9.9475,-9.947512 v -50.64188 c 0,-5.510921 4.4366,-9.947512 9.9475,-9.947512 z" style="opacity:1;fill:#450064;fill-opacity:1;stroke:none;stroke-width:1.41453123;stroke-linecap:butt;stroke-linejoin:round;stroke-miterlimit:4;stroke-dasharray:none;stroke-dashoffset:0;stroke-opacity:1;paint-order:fill markers stroke"/> <path style="opacity:1;fill:#450064;fill-opacity:1;stroke:none;stroke-width:0.71206069;stroke-linecap:butt;stroke-linejoin:round;stroke-miterlimit:4;stroke-dasharray:none;stroke-dashoffset:0;stroke-opacity:1;paint-order:fill markers stroke" d="m -976.28217,-93.253301 a 25.298501,25.298501 0 0 0 -25.29863,25.298372 25.298501,25.298501 0 0 0 25.29863,25.298595 25.298501,25.298501 0 0 0 25.29836,-25.298595 25.298501,25.298501 0 0 0 -25.29836,-25.298372 z m -3.14591,5.609472 v 1.15845 c -10e-6,1.17486 0.73197,2.12072 1.64126,2.12072 h 3.00907 c 0.90928,0 1.64124,-0.94587 1.64124,-2.12072 v -1.14481 a 19.949406,19.949406 0 0 1 12.38409,7.16412 l -0.97925,0.56535 c -1.01745,0.58743 -1.47051,1.69427 -1.01586,2.48175 l 1.50465,2.60592 c 0.45465,0.78747 1.63967,0.94845 2.65711,0.36102 l 0.95676,-0.55242 a 19.949406,19.949406 0 0 1 1.29603,7.04952 19.949406,19.949406 0 0 1 -1.36229,7.186365 l -0.8905,-0.51414 c -1.01744,-0.58742 -2.20246,-0.42645 -2.65711,0.36103 l -1.50465,2.60592 c -0.45465,0.78746 -10e-4,1.89431 1.01586,2.48173 l 0.8778,0.50675 a 19.949406,19.949406 0 0 1 -12.28264,7.06124 v -0.98333 c 2e-5,-1.17484 -0.73196,-2.12072 -1.64124,-2.12072 h -3.00907 c -0.90929,0 -1.64126,0.94588 -1.64126,2.12072 v 0.96969 a 19.949406,19.949406 0 0 1 -12.28195,-7.04785 l 0.87711,-0.5065 c 1.01745,-0.58742 1.47051,-1.69427 1.01586,-2.48173 l -1.50464,-2.60592 c -0.45465,-0.78748 -1.63967,-0.94845 -2.65712,-0.36103 l -0.90772,0.52419 a 19.949406,19.949406 0 0 1 -1.34507,-7.196415 19.949406,19.949406 0 0 1 1.30942,-7.04187 l 0.94337,0.54477 c 1.01743,0.58743 2.20247,0.42645 2.65712,-0.36102 l 1.50464,-2.60592 c 0.45465,-0.78748 10e-4,-1.89433 -1.01586,-2.48175 l -0.97041,-0.56032 a 19.949406,19.949406 0 0 1 12.37525,-7.18279 z" id="path965"/> <path id="path967" d="m -803.63766,-93.253301 a 25.298501,25.298501 0 0 0 -25.29859,25.298372 25.298501,25.298501 0 0 0 25.29859,25.298595 25.298501,25.298501 0 0 0 25.2984,-25.298595 25.298501,25.298501 0 0 0 -25.2984,-25.298372 z m -3.14589,5.609472 v 1.15845 c 0,1.17486 0.73197,2.12072 1.64126,2.12072 h 3.00906 c 0.90929,0 1.64126,-0.94587 1.64126,-2.12072 v -1.14481 a 19.949406,19.949406 0 0 1 12.38409,7.16412 l -0.97925,0.56535 c -1.01746,0.58743 -1.4705,1.69427 -1.01587,2.48175 l 1.50466,2.60592 c 0.45463,0.78747 1.63967,0.94845 2.6571,0.36102 l 0.95676,-0.55242 a 19.949406,19.949406 0 0 1 1.29604,7.04952 19.949406,19.949406 0 0 1 -1.36229,7.186365 l -0.89051,-0.51414 c -1.01743,-0.58742 -2.20247,-0.42645 -2.6571,0.36103 l -1.50466,2.60592 c -0.45463,0.78746 0,1.89431 1.01587,2.48173 l 0.8778,0.50675 a 19.949406,19.949406 0 0 1 -12.28264,7.06124 v -0.98333 c 0,-1.17484 -0.73197,-2.12072 -1.64126,-2.12072 h -3.00906 c -0.90929,0 -1.64126,0.94588 -1.64126,2.12072 v 0.96969 a 19.949406,19.949406 0 0 1 -12.28194,-7.04785 l 0.8771,-0.5065 c 1.01745,-0.58742 1.47051,-1.69427 1.01586,-2.48173 l -1.50465,-2.60592 c -0.45465,-0.78748 -1.63967,-0.94845 -2.65711,-0.36103 l -0.90772,0.52419 a 19.949406,19.949406 0 0 1 -1.34507,-7.196415 19.949406,19.949406 0 0 1 1.30941,-7.04187 l 0.94338,0.54477 c 1.01743,0.58743 2.20246,0.42645 2.65711,-0.36102 l 1.50465,-2.60592 c 0.45465,-0.78748 0.001,-1.89433 -1.01586,-2.48175 l -0.97041,-0.56032 a 19.949406,19.949406 0 0 1 12.37525,-7.18279 z" style="opacity:1;fill:#450064;fill-opacity:1;stroke:none;stroke-width:0.71206069;stroke-linecap:butt;stroke-linejoin:round;stroke-miterlimit:4;stroke-dasharray:none;stroke-dashoffset:0;stroke-opacity:1;paint-order:fill markers stroke"/> <g style="fill:#450064;fill-opacity:1;stroke:none" id="g973" transform="translate(-1365.7196,-125.6358)"> <path id="rect969" d="m 430.93274,32.937706 h 87.06041 c 2.53638,0 4.57831,2.041926 4.57831,4.57831 v 37.882817 c 0,2.536383 -2.04193,4.578309 -4.57831,4.578309 h -87.06041 c -2.53638,0 -4.57831,-2.041926 -4.57831,-4.578309 V 37.516016 c 0,-2.536384 2.04193,-4.57831 4.57831,-4.57831 z" style="opacity:1;fill:#450064;fill-opacity:1;stroke:none;stroke-width:1.53799999;stroke-linecap:butt;stroke-linejoin:round;stroke-miterlimit:4;stroke-dasharray:none;stroke-dashoffset:0;stroke-opacity:1;paint-order:fill markers stroke"/> <path id="path971" d="m 430.93299,32.937524 c -2.5364,0 -4.57853,2.042149 -4.57853,4.578532 v 37.882959 c 0,2.536383 2.04213,4.578014 4.57853,4.578014 h 41.80674 a 66.282844,66.282844 0 0 0 4.3956,-23.519495 66.282844,66.282844 0 0 0 -4.33927,-23.52001 z" style="opacity:1;fill:#450064;fill-opacity:1;stroke:none;stroke-width:1.53799999;stroke-linecap:butt;stroke-linejoin:round;stroke-miterlimit:4;stroke-dasharray:none;stroke-dashoffset:0;stroke-opacity:1;paint-order:fill markers stroke"/> </g> <path id="circle975" d="m -1047.1343,-155.77368 a 9.0871639,9.0871639 0 0 1 -9.0871,9.08716 9.0871639,9.0871639 0 0 1 -9.0872,-9.08716 9.0871639,9.0871639 0 0 1 9.0872,-9.08717 9.0871639,9.0871639 0 0 1 9.0871,9.08717 z" style="opacity:1;fill:#450064;fill-opacity:1;stroke:none;stroke-width:1.53799999;stroke-linecap:butt;stroke-linejoin:round;stroke-miterlimit:4;stroke-dasharray:none;stroke-dashoffset:0;stroke-opacity:1;paint-order:fill markers stroke"/> <path id="circle977" d="m -1047.1343,46.821533 a 9.0871639,9.0871639 0 0 1 -9.0871,9.087164 9.0871639,9.0871639 0 0 1 -9.0872,-9.087164 9.0871639,9.0871639 0 0 1 9.0872,-9.087164 9.0871639,9.0871639 0 0 1 9.0871,9.087164 z" style="opacity:1;fill:#450064;fill-opacity:1;stroke:none;stroke-width:1.53799999;stroke-linecap:butt;stroke-linejoin:round;stroke-miterlimit:4;stroke-dasharray:none;stroke-dashoffset:0;stroke-opacity:1;paint-order:fill markers stroke"/> <path id="circle979" d="m -716.7832,46.821533 a 9.0871639,9.0871639 0 0 1 -9.08716,9.087164 9.0871639,9.0871639 0 0 1 -9.08717,-9.087164 9.0871639,9.0871639 0 0 1 9.08717,-9.087164 9.0871639,9.0871639 0 0 1 9.08716,9.087164 z" style="opacity:1;fill:#450064;fill-opacity:1;stroke:none;stroke-width:1.53799999;stroke-linecap:butt;stroke-linejoin:round;stroke-miterlimit:4;stroke-dasharray:none;stroke-dashoffset:0;stroke-opacity:1;paint-order:fill markers stroke"/> <path id="circle981" d="m -716.7832,-155.77368 a 9.0871639,9.0871639 0 0 1 -9.08716,9.08716 9.0871639,9.0871639 0 0 1 -9.08717,-9.08716 9.0871639,9.0871639 0 0 1 9.08717,-9.08717 9.0871639,9.0871639 0 0 1 9.08716,9.08717 z" style="opacity:1;fill:#450064;fill-opacity:1;stroke:none;stroke-width:1.53799999;stroke-linecap:butt;stroke-linejoin:round;stroke-miterlimit:4;stroke-dasharray:none;stroke-dashoffset:0;stroke-opacity:1;paint-order:fill markers stroke"/> <path id="circle983" d="m -980.31699,44.678436 a 7.4835467,7.4835467 0 0 1 -7.48355,7.483547 7.4835467,7.4835467 0 0 1 -7.48354,-7.483547 7.4835467,7.4835467 0 0 1 7.48354,-7.483546 7.4835467,7.4835467 0 0 1 7.48355,7.483546 z" style="opacity:1;fill:#450064;fill-opacity:1;stroke:none;stroke-width:2;stroke-linecap:butt;stroke-linejoin:round;stroke-miterlimit:4;stroke-dasharray:none;stroke-dashoffset:0;stroke-opacity:1;paint-order:fill markers stroke"/> <path id="rect985" d="m -958.90071,30.245878 h 6.07777 c 2.53638,0 4.5783,1.725701 4.5783,3.869283 v 4.555832 c 0,2.143583 -2.04192,3.869284 -4.5783,3.869284 h -6.07777 c -2.53637,0 -4.57829,-1.725701 -4.57829,-3.869284 v -4.555832 c 0,-2.143582 2.04192,-3.869283 4.57829,-3.869283 z" style="opacity:1;fill:#450064;fill-opacity:1;stroke:none;stroke-width:2;stroke-linecap:butt;stroke-linejoin:round;stroke-miterlimit:4;stroke-dasharray:none;stroke-dashoffset:0;stroke-opacity:1;paint-order:fill markers stroke"/> <path id="circle987" d="m 799.92605,44.678436 a 7.4835467,7.4835467 0 0 1 -7.48355,7.483547 7.4835467,7.4835467 0 0 1 -7.48354,-7.483547 7.4835467,7.4835467 0 0 1 7.48354,-7.483546 7.4835467,7.4835467 0 0 1 7.48355,7.483546 z" style="opacity:1;fill:#450064;fill-opacity:1;stroke:none;stroke-width:2;stroke-linecap:butt;stroke-linejoin:round;stroke-miterlimit:4;stroke-dasharray:none;stroke-dashoffset:0;stroke-opacity:1;paint-order:fill markers stroke" transform="scale(-1,1)"/> <path id="rect989" d="m 821.3424,30.245878 h 6.07776 c 2.53638,0 4.5783,1.725701 4.5783,3.869283 v 4.555832 c 0,2.143583 -2.04192,3.869284 -4.5783,3.869284 h -6.07776 c -2.53638,0 -4.5783,-1.725701 -4.5783,-3.869284 v -4.555832 c 0,-2.143582 2.04192,-3.869283 4.5783,-3.869283 z" style="opacity:1;fill:#450064;fill-opacity:1;stroke:none;stroke-width:2;stroke-linecap:butt;stroke-linejoin:round;stroke-miterlimit:4;stroke-dasharray:none;stroke-dashoffset:0;stroke-opacity:1;paint-order:fill markers stroke" transform="scale(-1,1)"/> <path id="circle991" d="m -882.16955,24.013275 a 9.0871639,9.0871639 0 0 1 -9.08716,9.087164 9.0871639,9.0871639 0 0 1 -9.08717,-9.087164 9.0871639,9.0871639 0 0 1 9.08717,-9.087164 9.0871639,9.0871639 0 0 1 9.08716,9.087164 z" style="opacity:1;fill:#450064;fill-opacity:1;stroke:none;stroke-width:1.53799999;stroke-linecap:butt;stroke-linejoin:round;stroke-miterlimit:4;stroke-dasharray:none;stroke-dashoffset:0;stroke-opacity:1;paint-order:fill markers stroke"/> <path id="rect993" d="m -1032.5772,-25.939363 h 279.61719 c 2.53638,0 4.5783,1.725704 4.5783,3.869292 v 18.7197485 c 0,2.1435883 -2.04192,3.86929299 -4.5783,3.86929299 h -279.61719 c -2.5364,0 -4.5783,-1.72570469 -4.5783,-3.86929299 V -22.070071 c 0,-2.143588 2.0419,-3.869292 4.5783,-3.869292 z" style="opacity:1;fill:#450064;fill-opacity:1;stroke:none;stroke-width:4.78600025;stroke-linecap:butt;stroke-linejoin:round;stroke-miterlimit:4;stroke-dasharray:none;stroke-dashoffset:0;stroke-opacity:1;paint-order:fill markers stroke"/> <path id="rect995" d="m -1053.0304,-171.83817 h 323.5476 c 10.88874,0 19.65477,8.76603 19.65477,19.65477 V 44.36422 c 0,10.888738 -8.76603,19.654762 -19.65477,19.654762 h -323.5476 c -10.8888,0 -19.6548,-8.766024 -19.6548,-19.654762 V -152.1834 c 0,-10.88874 8.766,-19.65477 19.6548,-19.65477 z" style="opacity:1;fill:#450064;fill-opacity:1;stroke:none;stroke-width:3;stroke-linecap:butt;stroke-linejoin:round;stroke-miterlimit:4;stroke-dasharray:none;stroke-dashoffset:0;stroke-opacity:1;paint-order:fill markers stroke"/> <path style="opacity:0.31300001;fill:#450064;fill-opacity:1;stroke:none;stroke-width:1.50250888;stroke-linecap:butt;stroke-linejoin:round;stroke-miterlimit:4;stroke-dasharray:none;stroke-dashoffset:0;stroke-opacity:1;paint-order:fill markers stroke" d="m -1037.7453,-153.55977 c -2.5364,0 -4.5781,2.32979 -4.5781,5.22346 v 4.81107 c 0,-2.89367 2.0417,-5.22345 4.5781,-5.22345 h 292.32374 c 2.53637,0 4.57803,2.32978 4.57803,5.22345 v -4.81107 c 0,-2.89367 -2.04166,-5.22346 -4.57803,-5.22346 z" id="path997"/> <path id="rect999" d="m -1037.7452,-153.55957 h 292.32343 c 2.53637,0 4.57829,2.32956 4.57829,5.22323 V -0.63523579 c 0,2.89367119 -2.04192,5.22323319 -4.57829,5.22323319 h -292.32343 c -2.5364,0 -4.5783,-2.329562 -4.5783,-5.22323319 V -148.33634 c 0,-2.89367 2.0419,-5.22323 4.5783,-5.22323 z" style="opacity:1;fill:#450064;fill-opacity:1;stroke:none;stroke-width:1.50250888;stroke-linecap:butt;stroke-linejoin:round;stroke-miterlimit:4;stroke-dasharray:none;stroke-dashoffset:0;stroke-opacity:1;paint-order:fill markers stroke"/> </g> <rect ry="7.3680072" rx="6.1636214" y="-339.00073" x="-205.63449" height="105.84241" width="24.425173" id="rect4626" style="opacity:1;fill:#450064;fill-opacity:1;stroke:none;stroke-width:2.26383781;stroke-linecap:butt;stroke-linejoin:round;stroke-miterlimit:4;stroke-dasharray:none;stroke-dashoffset:0;stroke-opacity:1;paint-order:fill markers stroke"/> <rect style="opacity:1;fill:#450064;fill-opacity:1;stroke:none;stroke-width:2.26383781;stroke-linecap:butt;stroke-linejoin:round;stroke-miterlimit:4;stroke-dasharray:none;stroke-dashoffset:0;stroke-opacity:1;paint-order:fill markers stroke" id="rect4624" width="24.425173" height="105.84241" x="-684.97864" y="-339.00073" rx="6.1636214" ry="7.3680072"/> <rect style="opacity:1;fill:#7acbf5;fill-opacity:1;stroke:none;stroke-width:4.03880835;stroke-linecap:butt;stroke-linejoin:round;stroke-miterlimit:4;stroke-dasharray:none;stroke-dashoffset:0;stroke-opacity:1;paint-order:fill markers stroke" id="rect4589" width="488.50348" height="317.52725" x="-677.85437" y="-509.9769" ry="26.460604"/> <rect ry="7.0318789" rx="6.1636214" y="-477.00534" x="-641.64856" height="212.90923" width="405.87329" id="rect924" style="opacity:1;fill:#6db5da;fill-opacity:1;stroke:none;stroke-width:2.02278161;stroke-linecap:butt;stroke-linejoin:round;stroke-miterlimit:4;stroke-dasharray:none;stroke-dashoffset:0;stroke-opacity:1;paint-order:fill markers stroke"/> <rect style="opacity:1;fill:#3677bc;fill-opacity:1;stroke:#450064;stroke-width:2.02278161;stroke-linecap:butt;stroke-linejoin:round;stroke-miterlimit:4;stroke-dasharray:none;stroke-dashoffset:0;stroke-opacity:1;paint-order:fill markers stroke" id="rect4663" width="405.87329" height="212.90923" x="-636.97937" y="-485.36899" rx="6.1636214" ry="7.0318789"/> <rect ry="13.392031" y="-411.1171" x="-618.55884" height="94.961678" width="364.13458" id="rect926" style="opacity:0.34500002;fill:#450064;fill-opacity:1;stroke:none;stroke-width:1.90434015;stroke-linecap:butt;stroke-linejoin:round;stroke-miterlimit:4;stroke-dasharray:none;stroke-dashoffset:0;stroke-opacity:1;paint-order:fill markers stroke"/> <path style="opacity:1;fill:#6db5da;fill-opacity:1;stroke:none;stroke-width:4.03880835;stroke-linecap:butt;stroke-linejoin:round;stroke-miterlimit:4;stroke-dasharray:none;stroke-dashoffset:0;stroke-opacity:1;paint-order:fill markers stroke" d="m -677.85447,-230.10503 v 11.19458 c 0,14.65917 11.8013,26.46109 26.4604,26.46109 h 435.58238 c 14.65919,0 26.46108,-11.80192 26.46108,-26.46109 v -11.19458 c 0,14.65918 -11.80189,26.46041 -26.46108,26.46041 h -435.58238 c -14.6591,0 -26.4604,-11.80123 -26.4604,-26.46041 z" id="rect935"/> <path style="color:#000000;font-style:normal;font-variant:normal;font-weight:normal;font-stretch:normal;font-size:medium;line-height:normal;font-family:sans-serif;font-variant-ligatures:normal;font-variant-position:normal;font-variant-caps:normal;font-variant-numeric:normal;font-variant-alternates:normal;font-feature-settings:normal;text-indent:0;text-align:start;text-decoration:none;text-decoration-line:none;text-decoration-style:solid;text-decoration-color:#000000;letter-spacing:normal;word-spacing:normal;text-transform:none;writing-mode:lr-tb;direction:ltr;text-orientation:mixed;dominant-baseline:auto;baseline-shift:baseline;text-anchor:start;white-space:normal;shape-padding:0;clip-rule:nonzero;display:inline;overflow:visible;visibility:visible;opacity:1;isolation:auto;mix-blend-mode:normal;color-interpolation:sRGB;color-interpolation-filters:linearRGB;solid-color:#000000;solid-opacity:1;vector-effect:none;fill:#450064;fill-opacity:1;fill-rule:nonzero;stroke:none;stroke-width:6.44324493;stroke-linecap:butt;stroke-linejoin:round;stroke-miterlimit:4;stroke-dasharray:none;stroke-dashoffset:0;stroke-opacity:1;paint-order:fill markers stroke;color-rendering:auto;image-rendering:auto;shape-rendering:auto;text-rendering:auto;enable-background:accumulate" d="m -586.52507,-270.77019 c -2.7027,0 -5.0807,1.49289 -6.5138,3.36512 -1.4331,1.87221 -2.2013,4.09447 -2.6165,6.3963 a 3.2219445,3.2219445 0 0 0 -0.012,0.0578 l -11.0679,68.50109 h 6.5256 l 10.8933,-67.41858 c 0.2845,-1.57405 0.8452,-2.90618 1.3915,-3.61974 0.5466,-0.71414 0.7985,-0.83832 1.3977,-0.83832 h 24.5061 256.83235 24.50619 c 0.59915,0 0.851,0.12413 1.39771,0.83832 0.54619,0.71356 1.10693,2.04566 1.39135,3.61974 l 10.89334,67.41858 h 6.5257 l -11.0639,-68.50109 a 3.2219445,3.2219445 0 0 0 -0.009,-0.0578 c -0.41525,-2.30182 -1.18342,-4.52409 -2.61653,-6.3963 -1.43307,-1.8722 -3.81115,-3.36512 -6.51387,-3.36512 h -24.50686 -256.83228 z" id="rect4628"/> <rect style="opacity:1;fill:#473488;fill-opacity:1;stroke:#450064;stroke-width:2;stroke-linecap:butt;stroke-linejoin:round;stroke-miterlimit:4;stroke-dasharray:none;stroke-dashoffset:0;stroke-opacity:1;paint-order:fill markers stroke" id="rect4620" width="364.13458" height="94.961678" x="-615.67004" y="-418.14496" ry="13.392031"/> <path style="opacity:1;fill:#ffffff;fill-opacity:1;stroke:none;stroke-width:0.95862556;stroke-linecap:butt;stroke-linejoin:round;stroke-miterlimit:4;stroke-dasharray:none;stroke-dashoffset:0;stroke-opacity:1;paint-order:fill markers stroke" d="m -548.06987,-404.18051 a 34.058598,34.058598 0 0 0 -34.0588,34.05843 34.058598,34.058598 0 0 0 34.0588,34.05872 34.058598,34.058598 0 0 0 34.05841,-34.05872 34.058598,34.058598 0 0 0 -34.05841,-34.05843 z m -4.2353,7.55187 v 1.55958 c 0,1.58168 0.9855,2.85506 2.2096,2.85506 h 4.05104 c 1.22413,0 2.20956,-1.27339 2.20956,-2.85506 v -1.54122 a 26.857274,26.857274 0 0 1 16.67232,9.64483 l -1.31834,0.76112 c -1.36977,0.79084 -1.9797,2.28094 -1.36761,3.3411 l 2.02565,3.50827 c 0.6121,1.06015 2.20746,1.27687 3.57719,0.48603 l 1.28805,-0.7437 a 26.857274,26.857274 0 0 1 1.74481,9.49055 26.857274,26.857274 0 0 1 -1.834,9.67478 l -1.19886,-0.69217 c -1.36973,-0.79083 -2.96509,-0.57412 -3.57719,0.48604 l -2.02565,3.50827 c -0.61209,1.06014 -10e-4,2.55026 1.36761,3.34108 l 1.18175,0.68222 a 26.857274,26.857274 0 0 1 -16.53573,9.50634 v -1.32383 c 3e-5,-1.58165 -0.98543,-2.85506 -2.20956,-2.85506 h -4.05104 c -1.2241,0 -2.2096,1.27341 -2.2096,2.85506 v 1.30546 a 26.857274,26.857274 0 0 1 -16.5348,-9.4883 l 1.1809,-0.68189 c 1.3697,-0.79082 1.9797,-2.28094 1.3676,-3.34108 l -2.0257,-3.50827 c -0.6121,-1.06016 -2.2074,-1.27687 -3.5772,-0.48604 l -1.222,0.7057 a 26.857274,26.857274 0 0 1 -1.8108,-9.68831 26.857274,26.857274 0 0 1 1.7628,-9.48025 l 1.27,0.7334 c 1.3698,0.79084 2.9651,0.57412 3.5772,-0.48603 l 2.0257,-3.50827 c 0.6121,-1.06016 0,-2.55028 -1.3676,-3.3411 l -1.3065,-0.75434 a 26.857274,26.857274 0 0 1 16.6604,-9.66997 z" id="path4591"/> <path id="path4618" d="m -315.64385,-404.18051 a 34.058598,34.058598 0 0 0 -34.05872,34.05843 34.058598,34.058598 0 0 0 34.05872,34.05872 34.058598,34.058598 0 0 0 34.05844,-34.05872 34.058598,34.058598 0 0 0 -34.05844,-34.05843 z m -4.23524,7.55187 v 1.55958 c 0,1.58168 0.98543,2.85506 2.20959,2.85506 h 4.05102 c 1.22412,0 2.20955,-1.27339 2.20955,-2.85506 v -1.54122 a 26.857274,26.857274 0 0 1 16.67233,9.64483 l -1.31835,0.76112 c -1.36976,0.79084 -1.97966,2.28094 -1.36763,3.3411 l 2.02568,3.50827 c 0.61206,1.06015 2.20745,1.27687 3.57719,0.48603 l 1.28805,-0.7437 a 26.857274,26.857274 0 0 1 1.74483,9.49055 26.857274,26.857274 0 0 1 -1.83402,9.67478 l -1.19886,-0.69217 c -1.36974,-0.79083 -2.96513,-0.57412 -3.57719,0.48604 l -2.02568,3.50827 c -0.61203,1.06014 0,2.55026 1.36763,3.34108 l 1.18179,0.68222 a 26.857274,26.857274 0 0 1 -16.53577,9.50634 v -1.32383 c 0,-1.58165 -0.98543,-2.85506 -2.20955,-2.85506 h -4.05102 c -1.22416,0 -2.20959,1.27341 -2.20959,2.85506 v 1.30546 a 26.857274,26.857274 0 0 1 -16.5348,-9.4883 l 1.18082,-0.68189 c 1.36977,-0.79082 1.9797,-2.28094 1.36764,-3.34108 l -2.02568,-3.50827 c -0.61207,-1.06016 -2.20743,-1.27687 -3.57719,-0.48604 l -1.22203,0.7057 a 26.857274,26.857274 0 0 1 -1.81083,-9.68831 26.857274,26.857274 0 0 1 1.76281,-9.48025 l 1.27005,0.7334 c 1.36973,0.79084 2.96512,0.57412 3.57719,-0.48603 l 2.02568,-3.50827 c 0.61206,-1.06016 10e-4,-2.55028 -1.36764,-3.3411 l -1.30642,-0.75434 a 26.857274,26.857274 0 0 1 16.6604,-9.66997 z" style="opacity:1;fill:#ffffff;fill-opacity:1;stroke:none;stroke-width:0.95862556;stroke-linecap:butt;stroke-linejoin:round;stroke-miterlimit:4;stroke-dasharray:none;stroke-dashoffset:0;stroke-opacity:1;paint-order:fill markers stroke"/> <g id="g4661" transform="matrix(1.3462694,0,0,1.3462694,-1072.3577,-447.77608)"> <rect rx="4.5783095" ry="4.5783095" y="32.937706" x="426.35443" height="47.039436" width="96.217026" id="rect4622" style="opacity:1;fill:#7acbf5;fill-opacity:1;stroke:#450064;stroke-width:1.53799999;stroke-linecap:butt;stroke-linejoin:round;stroke-miterlimit:4;stroke-dasharray:none;stroke-dashoffset:0;stroke-opacity:1;paint-order:fill markers stroke"/> <path id="path4634" d="m 430.93299,32.937524 c -2.5364,0 -4.57853,2.042149 -4.57853,4.578532 v 37.882959 c 0,2.536383 2.04213,4.578014 4.57853,4.578014 h 41.80674 a 66.282844,66.282844 0 0 0 4.3956,-23.519495 66.282844,66.282844 0 0 0 -4.33927,-23.52001 z" style="opacity:1;fill:#450064;fill-opacity:1;stroke:none;stroke-width:1.53799999;stroke-linecap:butt;stroke-linejoin:round;stroke-miterlimit:4;stroke-dasharray:none;stroke-dashoffset:0;stroke-opacity:1;paint-order:fill markers stroke"/> </g> <circle style="opacity:1;fill:#450064;fill-opacity:1;stroke:none;stroke-width:2.07056236;stroke-linecap:butt;stroke-linejoin:round;stroke-miterlimit:4;stroke-dasharray:none;stroke-dashoffset:0;stroke-opacity:1;paint-order:fill markers stroke" id="path4639" cx="-655.6897" cy="-488.34979" r="12.23377"/> <circle r="12.23377" cy="-215.60205" cx="-655.6897" id="circle4641" style="opacity:1;fill:#450064;fill-opacity:1;stroke:none;stroke-width:2.07056236;stroke-linecap:butt;stroke-linejoin:round;stroke-miterlimit:4;stroke-dasharray:none;stroke-dashoffset:0;stroke-opacity:1;paint-order:fill markers stroke"/> <circle style="opacity:1;fill:#450064;fill-opacity:1;stroke:none;stroke-width:2.07056236;stroke-linecap:butt;stroke-linejoin:round;stroke-miterlimit:4;stroke-dasharray:none;stroke-dashoffset:0;stroke-opacity:1;paint-order:fill markers stroke" id="circle4643" cx="-210.94809" cy="-215.60205" r="12.23377"/> <path style="opacity:0.38500001;fill:#ffffff;fill-opacity:1;stroke:none;stroke-width:4.03880835;stroke-linecap:butt;stroke-linejoin:round;stroke-miterlimit:4;stroke-dasharray:none;stroke-dashoffset:0;stroke-opacity:1;paint-order:fill markers stroke" d="m -651.39407,-509.97699 c -14.6591,0 -26.4604,11.80123 -26.4604,26.4604 v 9.15964 c 0,-14.65918 11.8013,-26.46041 26.4604,-26.46041 h 435.58238 c 14.65919,0 26.46108,11.80123 26.46108,26.46041 v -9.15964 c 0,-14.65917 -11.80189,-26.4604 -26.46108,-26.4604 z" id="rect1074"/> <circle r="12.23377" cy="-488.34979" cx="-210.94809" id="circle4645" style="opacity:1;fill:#450064;fill-opacity:1;stroke:none;stroke-width:2.07056236;stroke-linecap:butt;stroke-linejoin:round;stroke-miterlimit:4;stroke-dasharray:none;stroke-dashoffset:0;stroke-opacity:1;paint-order:fill markers stroke"/> <path id="rect4674" style="opacity:1;fill:#3677bc;fill-opacity:1;stroke:#450064;stroke-width:2.69253874;stroke-linecap:butt;stroke-linejoin:round;stroke-miterlimit:4;stroke-dasharray:none;stroke-dashoffset:0;stroke-opacity:1;paint-order:fill markers stroke" d="m -339.47917,-237.91734 h -8.18231 c -3.41466,0 -6.16364,2.32325 -6.16364,5.20909 v 6.13338 c 0,2.88584 2.74898,5.2091 6.16364,5.2091 h 8.18231 c 3.41462,0 6.1636,-2.32326 6.1636,-5.2091 v -6.13338 c 0,-2.88584 -2.74898,-5.20909 -6.1636,-5.20909 z m 28.83215,19.43011 a 10.07487,10.07487 0 0 0 10.07488,10.07487 10.07487,10.07487 0 0 0 10.07485,-10.07487 10.07487,10.07487 0 0 0 -10.07485,-10.07488 10.07487,10.07487 0 0 0 -10.07488,10.07488 z m -214.02269,-19.43011 h 8.1823 c 3.41466,0 6.16364,2.32325 6.16364,5.20909 v 6.13338 c 0,2.88584 -2.74898,5.2091 -6.16364,5.2091 h -8.1823 c -3.41466,0 -6.16364,-2.32326 -6.16364,-5.2091 v -6.13338 c 0,-2.88584 2.74898,-5.20909 6.16364,-5.20909 z m -28.83206,19.43011 a 10.07487,10.07487 0 0 1 -10.0749,10.07487 10.07487,10.07487 0 0 1 -10.0749,-10.07487 10.07487,10.07487 0 0 1 10.0749,-10.07488 10.07487,10.07487 0 0 1 10.0749,10.07488 z"/> <circle r="12.23377" cy="-246.30811" cx="-433.60269" id="circle4676" style="opacity:1;fill:#450064;fill-opacity:1;stroke:none;stroke-width:2.07056236;stroke-linecap:butt;stroke-linejoin:round;stroke-miterlimit:4;stroke-dasharray:none;stroke-dashoffset:0;stroke-opacity:1;paint-order:fill markers stroke"/> <rect style="opacity:1;fill:#450064;fill-opacity:1;stroke:none;stroke-width:6.44324589;stroke-linecap:butt;stroke-linejoin:round;stroke-miterlimit:4;stroke-dasharray:none;stroke-dashoffset:0;stroke-opacity:1;paint-order:fill markers stroke" id="rect4678" width="388.76733" height="35.620045" x="-630.02185" y="-313.55783" rx="6.1636214" ry="5.2091107"/> <g id="g4576" transform="matrix(1.3462694,0,0,1.3462694,-1209.102,-753.09072)" style="stroke:none"> <path id="rect4689" d="m 486.58292,470.35726 -33.11528,15.41254 c -7.75888,3.61114 -7.7664,9.38314 0,12.97813 l 32.9889,15.28615 z" style="opacity:1;fill:#5d6c53;fill-opacity:1;stroke:#450064;stroke-width:6.2706809;stroke-linecap:butt;stroke-linejoin:round;stroke-miterlimit:4;stroke-dasharray:none;stroke-dashoffset:0;stroke-opacity:1;paint-order:fill markers stroke"/> <rect ry="3.3023539" rx="5.0982084" y="468.66681" x="484.83911" height="47.183945" width="236.65572" id="rect4685" style="opacity:1;fill:#ffcd55;fill-opacity:1;stroke:#450064;stroke-width:3.12145662;stroke-linecap:butt;stroke-linejoin:round;stroke-miterlimit:4;stroke-dasharray:none;stroke-dashoffset:0;stroke-opacity:1;paint-order:fill markers stroke"/> <rect y="481.48517" x="484.84973" height="20.048096" width="200.60161" id="rect4699" style="opacity:1;fill:#ffcd55;fill-opacity:1;stroke:#450064;stroke-width:3;stroke-linecap:butt;stroke-linejoin:round;stroke-miterlimit:4;stroke-dasharray:none;stroke-dashoffset:0;stroke-opacity:1;paint-order:fill markers stroke"/> <path style="opacity:1;fill:#fffdf8;fill-opacity:1;stroke:#450064;stroke-width:3;stroke-linecap:butt;stroke-linejoin:round;stroke-miterlimit:4;stroke-dasharray:none;stroke-dashoffset:0;stroke-opacity:1;paint-order:fill markers stroke" d="m 486.58292,470.35726 -33.11528,15.41254 c -7.75888,3.61114 -7.7664,9.38314 0,12.97813 l 32.9889,15.28615 z" id="path4703"/> <path id="rect4701" d="m 457.35817,483.95884 -3.89039,1.81091 c -7.75889,3.61116 -7.76639,9.38305 0,12.97804 l 4.05461,1.87874 c 0.41139,-1.2601 0.63747,-2.61492 0.63747,-4.02891 v -8.14001 c 0,-1.59152 -0.28618,-3.10825 -0.80169,-4.49877 z" style="opacity:1;fill:#450064;fill-opacity:1;stroke:#450064;stroke-width:5.28077412;stroke-linecap:butt;stroke-linejoin:round;stroke-miterlimit:4;stroke-dasharray:none;stroke-dashoffset:0;stroke-opacity:1;paint-order:fill markers stroke"/> <path id="rect4709" d="m 694.37678,468.66661 v 47.1842 h 15.59439 c 6.38418,0 11.52384,-1.47315 11.52384,-3.30263 v -40.57894 c 0,-1.82949 -5.13966,-3.30263 -11.52384,-3.30263 z" style="opacity:1;fill:#ff8681;fill-opacity:1;stroke:#450064;stroke-width:3;stroke-linecap:butt;stroke-linejoin:round;stroke-miterlimit:4;stroke-dasharray:none;stroke-dashoffset:0;stroke-opacity:1;paint-order:fill markers stroke"/> <rect y="468.82864" x="682.63403" height="46.507526" width="16.071051" id="rect4697" style="opacity:1;fill:#7acbf5;fill-opacity:1;stroke:#450064;stroke-width:2.96665645;stroke-linecap:butt;stroke-linejoin:round;stroke-miterlimit:4;stroke-dasharray:none;stroke-dashoffset:0;stroke-opacity:1;paint-order:fill markers stroke"/> <rect style="opacity:1;fill:none;fill-opacity:1;stroke:#450064;stroke-width:2.96665645;stroke-linecap:butt;stroke-linejoin:round;stroke-miterlimit:4;stroke-dasharray:none;stroke-dashoffset:0;stroke-opacity:1;paint-order:fill markers stroke" id="rect1262" width="16.071051" height="46.507526" x="682.63403" y="468.82864"/> </g> <path style="opacity:0.18699999;fill:#450064;fill-opacity:1;stroke:#000000;stroke-width:0.3562004px;stroke-linecap:butt;stroke-linejoin:miter;stroke-opacity:1" d="m -590.81417,-82.144756 c 0,0.0151 0.01,0.0303 0.012,0.0452 0.1223,0.39087 0.286,0.77952 0.4898,1.16461 0.4081,0.77078 0.9793,1.52705 1.7142,2.25756 0.1838,0.18258 0.3775,0.36347 0.5816,0.54264 0.4083,0.35835 0.8569,0.70933 1.347,1.05191 0.2452,0.1714 0.5003,0.34025 0.7659,0.50717 0.5309,0.33362 1.1023,0.65831 1.7149,0.9719 0.3064,0.15688 0.6227,0.31061 0.9497,0.46194 l 5.4591,2.52958 -1.3817,-0.0167 22.9993,10.65748 c 0.7483,1.93106 3.4284,3.35469 6.6481,3.35469 h 304.8756 c 3.79593,0 6.85204,-1.97586 6.86241,-4.43302 3e-5,-0.004 0.001,-0.009 0.001,-0.0133 v -11.21014 l -315.91771,-0.85473 z" id="path1095"/> <path id="path1146" d="m -606.18717,-93.750346 c 0,-0.0151 0.01,-0.0303 0.012,-0.0452 0.1223,-0.39087 0.286,-0.77952 0.4898,-1.16461 0.408,-0.77078 0.9793,-1.52705 1.7142,-2.25756 0.1838,-0.18258 0.3775,-0.36347 0.5816,-0.54264 0.4083,-0.35835 0.8569,-0.70933 1.3469,-1.05191 0.2452,-0.1714 0.5004,-0.34025 0.766,-0.50717 0.5308,-0.33362 1.1023,-0.65831 1.7149,-0.971904 0.3063,-0.15688 0.6227,-0.31061 0.9496,-0.46194 l 5.4592,-2.52958 13.9913,-6.48327 22.9993,-10.65749 c 0.7483,-1.93105 3.4284,-3.35468 6.6481,-3.35468 h 304.8756 c 3.79593,0 6.85204,1.97586 6.86241,4.43302 3e-5,0.004 0.001,0.009 0.001,0.0133 v 12.06487 l -315.91771,-1.2381 z" style="opacity:0.24100001;fill:#fefdfc;fill-opacity:1;stroke:none;stroke-width:0.3562004px;stroke-linecap:butt;stroke-linejoin:miter;stroke-opacity:1"/> <rect ry="26.460604" y="-509.9769" x="-677.85437" height="317.52725" width="488.50348" id="rect938" style="opacity:1;fill:none;fill-opacity:1;stroke:#450064;stroke-width:5;stroke-linecap:butt;stroke-linejoin:round;stroke-miterlimit:4;stroke-dasharray:none;stroke-dashoffset:0;stroke-opacity:1;paint-order:fill markers stroke"/> <path style="opacity:0.31300001;fill:#64c4f6;fill-opacity:1;stroke:none;stroke-width:2.02278161;stroke-linecap:butt;stroke-linejoin:round;stroke-miterlimit:4;stroke-dasharray:none;stroke-dashoffset:0;stroke-opacity:1;paint-order:fill markers stroke" d="m -630.81587,-485.36925 c -3.4146,0 -6.1632,3.13651 -6.1632,7.03217 v 6.47701 c 0,-3.89566 2.7486,-7.03218 6.1632,-7.03218 h 393.54654 c 3.41466,0 6.16327,3.13652 6.16327,7.03218 v -6.47701 c 0,-3.89566 -2.74861,-7.03217 -6.16327,-7.03217 z" id="rect942"/> <rect ry="7.0318789" rx="6.1636214" y="-485.36899" x="-636.97937" height="212.90923" width="405.87329" id="rect945" style="opacity:1;fill:none;fill-opacity:1;stroke:#450064;stroke-width:2.5;stroke-linecap:butt;stroke-linejoin:round;stroke-miterlimit:4;stroke-dasharray:none;stroke-dashoffset:0;stroke-opacity:1;paint-order:fill markers stroke"/> <path style="opacity:0.38800001;fill:#450064;fill-opacity:1;stroke:#450064;stroke-width:2.69253874;stroke-linecap:butt;stroke-linejoin:round;stroke-miterlimit:4;stroke-dasharray:none;stroke-dashoffset:0;stroke-opacity:1;paint-order:fill markers stroke" d="m -524.6695,-237.91709 c -3.41459,0 -6.16394,2.3229 -6.16394,5.20874 v 5.59763 c 0,-2.88584 2.74935,-5.20943 6.16394,-5.20943 h 8.18219 c 3.41468,0 6.16326,2.32359 6.16326,5.20943 v -5.59763 c 0,-2.88584 -2.74858,-5.20874 -6.16326,-5.20874 z m 177.00799,0 c -3.41466,0 -6.16324,2.3229 -6.16324,5.20874 v 5.59763 c 0,-2.88584 2.74858,-5.20943 6.16324,-5.20943 h 8.18215 c 3.41465,0 6.16394,2.32359 6.16394,5.20943 v -5.59763 c 0,-2.88584 -2.74929,-5.20874 -6.16394,-5.20874 z m -215.91516,9.35513 a 10.07487,10.07487 0 0 0 -10.0746,10.07449 10.07487,10.07487 0 0 0 0.4029,2.80369 10.07487,10.07487 0 0 1 9.6717,-7.28124 10.07487,10.07487 0 0 1 9.6716,7.2715 10.07487,10.07487 0 0 0 0.4035,-2.79395 10.07487,10.07487 0 0 0 -10.0751,-10.07449 z m 263.00456,0 a 10.07487,10.07487 0 0 0 -10.07516,10.07449 10.07487,10.07487 0 0 0 0.40348,2.79395 10.07487,10.07487 0 0 1 9.67168,-7.2715 10.07487,10.07487 0 0 1 9.67168,7.28124 10.07487,10.07487 0 0 0 0.40283,-2.80369 10.07487,10.07487 0 0 0 -10.07451,-10.07449 z" id="path1069"/> <path style="opacity:0.23699999;fill:#450064;fill-opacity:1;stroke:#450064;stroke-width:2.07056236;stroke-linecap:butt;stroke-linejoin:round;stroke-miterlimit:4;stroke-dasharray:none;stroke-dashoffset:0;stroke-opacity:1;paint-order:fill markers stroke" d="m -492.20583,-403.43272 c -3.41466,0 -6.16395,2.74859 -6.16395,6.16325 v 9.15964 c 0,-3.41466 2.74929,-6.16394 6.16395,-6.16394 h 117.20664 c 3.41465,0 6.16394,2.74928 6.16394,6.16394 v -9.15964 c 0,-3.41466 -2.74929,-6.16325 -6.16394,-6.16325 z" id="rect1083"/> <g style="fill:none;stroke:none" transform="matrix(1.3462694,0,0,1.3462694,-1209.102,-753.09072)" id="g1162"> <path style="opacity:1;fill:none;fill-opacity:1;stroke:#450064;stroke-width:3.44090533;stroke-linecap:butt;stroke-linejoin:round;stroke-miterlimit:4;stroke-dasharray:none;stroke-dashoffset:0;stroke-opacity:1;paint-order:fill markers stroke" d="m 486.58292,470.35726 -33.11528,15.41254 c -7.75888,3.61114 -7.7664,9.38314 0,12.97813 l 32.9889,15.28615 z" id="path1148"/> <rect style="opacity:1;fill:none;fill-opacity:1;stroke:#450064;stroke-width:3.12145662;stroke-linecap:butt;stroke-linejoin:round;stroke-miterlimit:4;stroke-dasharray:none;stroke-dashoffset:0;stroke-opacity:1;paint-order:fill markers stroke" id="rect1150" width="236.65572" height="47.183945" x="484.83911" y="468.66681" rx="5.0982084" ry="3.3023539"/> <path style="opacity:1;fill:none;fill-opacity:1;stroke:#450064;stroke-width:5.28077412;stroke-linecap:butt;stroke-linejoin:round;stroke-miterlimit:4;stroke-dasharray:none;stroke-dashoffset:0;stroke-opacity:1;paint-order:fill markers stroke" d="m 457.35817,483.95884 -3.89039,1.81091 c -7.75889,3.61116 -7.76639,9.38305 0,12.97804 l 4.05461,1.87874 c 0.41139,-1.2601 0.63747,-2.61492 0.63747,-4.02891 v -8.14001 c 0,-1.59152 -0.28618,-3.10825 -0.80169,-4.49877 z" id="path1156"/> </g> <circle style="opacity:1;fill:#28aef3;fill-opacity:1;stroke:none;stroke-width:6.17651367;stroke-linecap:round;stroke-linejoin:round;stroke-miterlimit:4;stroke-dasharray:none;stroke-dashoffset:0;stroke-opacity:1;paint-order:stroke fill markers" id="path1188" cx="-777.52002" cy="-288.789" r="24.247105"/> <path style="opacity:1;fill:#ff8580;fill-opacity:1;stroke:none;stroke-width:6.17651367;stroke-linecap:round;stroke-linejoin:round;stroke-miterlimit:4;stroke-dasharray:none;stroke-dashoffset:0;stroke-opacity:1;paint-order:stroke fill markers" id="path1190" d="m -556.11289,-571.07238 -35.95407,9.63386 -9.63387,-35.95407 35.95407,-9.63386 z"/> <path style="opacity:1;fill:#28aef3;fill-opacity:1;stroke:none;stroke-width:3;stroke-linecap:round;stroke-linejoin:round;stroke-miterlimit:4;stroke-dasharray:none;stroke-dashoffset:0;stroke-opacity:1;paint-order:stroke fill markers" id="path1194" d="m -775.87556,-3.8507962 -8.04033,13.9262612 -8.04033,-13.9262611 z" transform="matrix(2.6915379,1.5142505,-1.5142505,2.6915379,1994.1498,947.08634)"/> <path style="opacity:1;fill:#e4e3e0;fill-opacity:1;stroke:#e4e3e0;stroke-width:4.20679045;stroke-linecap:round;stroke-linejoin:round;stroke-miterlimit:4;stroke-dasharray:none;stroke-dashoffset:0;stroke-opacity:1;paint-order:stroke fill markers" id="path1204" d="m -656.044,-102.8761 -24.48812,6.561569 -6.56158,-24.488119 24.48813,-6.56158 z"/> <path d="m -651.95843,-108.1289 -24.48812,6.56158 -6.56157,-24.48813 24.48812,-6.56157 z" id="path1196" style="opacity:1;fill:#28aef3;fill-opacity:1;stroke:#28aef3;stroke-width:4.20679045;stroke-linecap:round;stroke-linejoin:round;stroke-miterlimit:4;stroke-dasharray:none;stroke-dashoffset:0;stroke-opacity:1;paint-order:stroke fill markers"/> <circle r="16.076092" cy="-450.55255" cx="-117.76884" id="circle1198" style="opacity:1;fill:#ff8580;fill-opacity:1;stroke:none;stroke-width:4.09509516;stroke-linecap:round;stroke-linejoin:round;stroke-miterlimit:4;stroke-dasharray:none;stroke-dashoffset:0;stroke-opacity:1;paint-order:stroke fill markers"/> <path d="m -859.51655,-113.89177 -8.04033,13.926257 -8.04034,-13.926257 z" id="path1200" style="opacity:1;fill:#ff8580;fill-opacity:1;stroke:none;stroke-width:3;stroke-linecap:round;stroke-linejoin:round;stroke-miterlimit:4;stroke-dasharray:none;stroke-dashoffset:0;stroke-opacity:1;paint-order:stroke fill markers" transform="matrix(-0.0344958,2.5963818,-2.5963818,-0.0344958,-663.19327,1662.9055)"/> <circle style="opacity:1;fill:#ff8580;fill-opacity:1;stroke:none;stroke-width:6.17651367;stroke-linecap:round;stroke-linejoin:round;stroke-miterlimit:4;stroke-dasharray:none;stroke-dashoffset:0;stroke-opacity:1;paint-order:stroke fill markers" id="circle1206" cx="-171.46408" cy="-117.8756" r="24.247105"/> <path d="m -771.51551,-30.76418 -11.64219,3.119515 -3.11951,-11.642188 11.64218,-3.119515 z" id="path1208" style="opacity:1;fill:#ff8580;fill-opacity:1;stroke:none;stroke-width:2;stroke-linecap:round;stroke-linejoin:round;stroke-miterlimit:4;stroke-dasharray:none;stroke-dashoffset:0;stroke-opacity:1;paint-order:stroke fill markers" transform="matrix(-0.80680683,-2.9810055,2.9810055,-0.80680683,-625.49377,-2698.5936)"/> <path transform="matrix(2.9077722,1.0402843,-1.0402843,2.9077722,1523.6107,354.74829)" d="m -775.87556,-3.8507962 -8.04033,13.9262612 -8.04033,-13.9262611 z" id="path1210" style="opacity:1;fill:#28aef3;fill-opacity:1;stroke:none;stroke-width:3;stroke-linecap:round;stroke-linejoin:round;stroke-miterlimit:4;stroke-dasharray:none;stroke-dashoffset:0;stroke-opacity:1;paint-order:stroke fill markers"/> <rect style="opacity:1;fill:#fff7dd;fill-opacity:1;stroke:none;stroke-width:15.44128513;stroke-linecap:round;stroke-linejoin:round;stroke-miterlimit:4;stroke-dasharray:none;stroke-dashoffset:0;stroke-opacity:1;paint-order:stroke fill markers" id="rect1252" width="196.44447" height="46.222229" x="-170.59396" y="-556.20331" rx="8.7718277" ry="8.7718277"/> <rect ry="8.7718277" rx="8.7718277" y="-191.37787" x="-893.64172" height="46.222229" width="196.44447" id="rect1254" style="opacity:1;fill:#fff7dd;fill-opacity:1;stroke:none;stroke-width:15.44128513;stroke-linecap:round;stroke-linejoin:round;stroke-miterlimit:4;stroke-dasharray:none;stroke-dashoffset:0;stroke-opacity:1;paint-order:stroke fill markers"/> <path style="opacity:1;fill:#fff7dd;fill-opacity:1;stroke:none;stroke-width:15.44128513;stroke-linecap:round;stroke-linejoin:round;stroke-miterlimit:4;stroke-dasharray:none;stroke-dashoffset:0;stroke-opacity:1;paint-order:stroke fill markers" id="path1256" d="m -11.197337,-388.55268 -64.571162,0 0,-64.57116 64.571162,0 z"/> <path style="opacity:1;fill:#fff7dd;fill-opacity:1;stroke:none;stroke-width:10.92322731;stroke-linecap:round;stroke-linejoin:round;stroke-miterlimit:4;stroke-dasharray:none;stroke-dashoffset:0;stroke-opacity:1;paint-order:stroke fill markers" id="path1258" d="m -745.8857,-519.05044 -47.89315,10e-6 0,-47.89315 47.89315,0 z"/> </g> </svg>